<?xml version="1.0" encoding="utf-8"?>
<!-- Generator: Adobe Illustrator 27.1.1, SVG Export Plug-In . SVG Version: 6.00 Build 0)  -->
<svg version="1.1" id="Layer_1" xmlns="http://www.w3.org/2000/svg" xmlns:xlink="http://www.w3.org/1999/xlink" x="0px" y="0px"
	 viewBox="0 0 1080 1080" style="enable-background:new 0 0 1080 1080;" xml:space="preserve">
<style type="text/css">
	.st0{fill:#FFFFFF;}
</style>
<defs>
	
		<animate  accumulate="none" additive="replace" attributeName="opacity" attributeType="XML" calcMode="linear" dur="10s" fill="remove" from="0" restart="always" to="1">
		</animate>
</defs>
<g id="_R_G">
	<g id="_R_G_L_1_G" transform=" translate(540, 540) translate(0, 0)">
		<path id="_R_G_L_1_G_D_0_P_0" class="st0" d="M161-353C161-196.7,44,88,2,88s-158-282.8-158-438c0-54-218-68-218-2
			c0,68,181.5,602.5,285.5,706.5c47.5,0-21.5-250.5,28-250.5S-77,353-29,353S-44,162,0.5,162c43.5,0-3,190.5,28.5,190.5
			c49,0-11-250.5,32-250.5c52.5,0-18,252,32,252c92.5-92.5,283-452.5,283-706C376-404,161-398,161-353z"/>
		<path id="_R_G_L_1_G_D_1_P_0" class="st0" d="M161-353C161-196.7,44,88,2,88s-158-282.8-158-438c0-54-218-68-218-2
			c0,68,181.5,602.5,285.5,706.5c47.5,0-21.5-250.5,28-250.5S-77,353-29,353S-44,162,0.5,162c43.5,0-3,190.5,28.5,190.5
			c49,0-11-250.5,32-250.5c52.5,0-18,252,32,252c92.5-92.5,283-452.5,283-706C376-404,161-398,161-353z"/>
	</g>
	<g id="_R_G_L_0_G" transform=" translate(525.5, 522.5) translate(0, 0)">
		<path id="_R_G_L_0_G_D_0_P_0" class="st0" d="M14.5,131C4.8,131-3,138.8-3,148.5c0,9.7,7.8,17.5,17.5,17.5c9.7,0,17.5-7.8,17.5-17.5
			C32,138.8,24.2,131,14.5,131z"/>
		<path id="_R_G_L_0_G_D_1_P_0" class="st0" d="M14.5,131C4.8,131-3,138.8-3,148.5c0,9.7,7.8,17.5,17.5,17.5
			c9.7,0,17.5-7.8,17.5-17.5C32,138.8,24.2,131,14.5,131z"/>
	</g>
</g>
<g id="time_group">
</g>
</svg>
